<svg width="64" height="64" xmlns="http://www.w3.org/2000/svg">

 <g>
  <title>background</title>
  <rect fill="none" id="canvas_background" height="402" width="582" y="-1" x="-1"/>
 </g>
 <g>
  <title>Layer 1</title>
  <circle id="svg_2" r="32" fill="#ffaa56" cy="32" cx="32"/>
  <path opacity="0.2" id="svg_4" fill="#231F20" d="m33.752,53.565c-0.968,0.581 -2.537,0.581 -3.504,0l-17.522,-10.514c-0.968,-0.581 -0.968,-1.522 0,-2.103l17.522,-10.513c0.968,-0.581 2.537,-0.581 3.504,0l17.522,10.513c0.968,0.581 0.968,1.522 0,2.103l-17.522,10.514z"/>
  <path id="svg_6" fill="#C75C5C" d="m33.752,51.565c-0.968,0.581 -2.537,0.581 -3.504,0l-17.522,-10.514c-0.968,-0.581 -0.968,-1.522 0,-2.103l17.522,-10.513c0.968,-0.581 2.537,-0.581 3.504,0l17.522,10.513c0.968,0.581 0.968,1.522 0,2.103l-17.522,10.514z"/>
  <path opacity="0.2" id="svg_8" fill="#231F20" d="m33.752,45.565c-0.968,0.581 -2.537,0.581 -3.504,0l-17.522,-10.514c-0.968,-0.581 -0.968,-1.522 0,-2.103l17.522,-10.513c0.968,-0.581 2.537,-0.581 3.504,0l17.522,10.513c0.968,0.581 0.968,1.522 0,2.103l-17.522,10.514z"/>
  <path id="svg_10" fill="#76C2AF" d="m33.752,43.565c-0.968,0.581 -2.537,0.581 -3.504,0l-17.522,-10.514c-0.968,-0.581 -0.968,-1.522 0,-2.103l17.522,-10.513c0.968,-0.581 2.537,-0.581 3.504,0l17.522,10.513c0.968,0.581 0.968,1.522 0,2.103l-17.522,10.514z"/>
  <path opacity="0.2" id="svg_12" fill="#231F20" d="m33.752,37.565c-0.968,0.581 -2.537,0.581 -3.504,0l-17.522,-10.514c-0.968,-0.581 -0.968,-1.522 0,-2.103l17.522,-10.513c0.968,-0.581 2.537,-0.581 3.504,0l17.522,10.513c0.968,0.581 0.968,1.522 0,2.103l-17.522,10.514z"/>
  <path id="svg_14" fill="#4F5D73" d="m33.752,35.565c-0.968,0.581 -2.537,0.581 -3.504,0l-17.522,-10.514c-0.968,-0.581 -0.968,-1.522 0,-2.103l17.522,-10.513c0.968,-0.581 2.537,-0.581 3.504,0l17.522,10.513c0.968,0.581 0.968,1.522 0,2.103l-17.522,10.514z"/>
 </g>
</svg>