<svg width="400" height="400" xmlns="http://www.w3.org/2000/svg" xmlns:xlink="http://www.w3.org/1999/xlink">
 <title/>
 <desc/>
 <defs>
  <path id="path-1" d="m157.23389,68l0,6.67969c-9.27739,1.57715 -16.11937,5.03293 -20.52613,10.36743c-4.40676,5.3345 -6.6101,11.01681 -6.6101,17.04712c0,6.4014 1.06688,14.33345 3.20068,23.79639c2.31935,10.11235 3.479,18.60104 3.479,25.4663c0,7.60746 -2.13376,14.93649 -6.40136,21.98731c-4.2676,7.05082 -9.32371,12.40843 -15.16846,16.073c-5.84476,3.66457 -13.77681,6.9348 -23.79639,9.81079c17.25595,5.28811 29.17722,12.45479 35.76416,21.50024c6.58695,9.04546 9.88037,18.0212 9.88037,26.92749c0,5.38089 -1.11327,12.98823 -3.33984,22.82227c-2.31935,9.83403 -3.479,18.13717 -3.479,24.90967c0,16.14265 8.99893,25.791 26.99707,28.94531l0,6.67969c-8.25688,0 -14.95969,-0.60303 -20.10865,-1.80909c-5.14895,-1.20606 -10.87765,-4.01243 -17.18628,-8.41919c-6.30862,-4.40676 -11.24876,-9.90353 -14.82055,-16.49047c-3.5718,-6.58695 -5.35767,-13.26657 -5.35767,-20.03907c0,-6.21585 1.43798,-15.21478 4.31397,-26.99707c2.1338,-8.81352 3.20068,-16.42086 3.20068,-22.82226c0,-17.25595 -9.09171,-27.46092 -27.27539,-30.61524l0,-8.76709c9.74126,-1.48438 16.72239,-5.38083 20.9436,-11.68945c4.22122,-6.30863 6.33179,-13.03463 6.33179,-20.17822c0,-6.30863 -1.0205,-13.59127 -3.06152,-21.84815c-2.87599,-11.68951 -4.31397,-20.41013 -4.31397,-26.16211c0,-11.22564 4.89375,-21.8249 14.6814,-31.79809c9.78764,-9.9732 24.00503,-15.09888 42.65259,-15.3772l0,0z"/>
  <filter y="-50%" x="-50%" width="200%" id="filter-2" height="200%" filterUnits="objectBoundingBox">
   <feGaussianBlur stdDeviation="2"/>
  </filter>
  <path id="path-3" d="m243,68l0,6.67969c9.27739,1.57715 16.11936,5.03293 20.52612,10.36743c4.40676,5.3345 6.61011,11.01681 6.61011,17.04712c0,6.4014 -1.06688,14.33345 -3.20068,23.79639c-2.31935,10.11235 -3.47901,18.60104 -3.47901,25.4663c0,7.60746 2.13377,14.93649 6.40137,21.98731c4.2676,7.05082 9.3237,12.40843 15.16846,16.073c5.84475,3.66457 13.7768,6.9348 23.79638,9.81079c-17.25594,5.28811 -29.17721,12.45479 -35.76416,21.50024c-6.58694,9.04546 -9.88037,18.0212 -9.88037,26.92749c0,5.38089 1.11327,12.98823 3.33985,22.82227c2.31934,9.83403 3.479,18.13717 3.479,24.90967c0,16.14265 -8.99893,25.791 -26.99707,28.94531l0,6.67969c8.25688,0 14.95969,-0.60303 20.10864,-1.80909c5.14895,-1.20606 10.87766,-4.01243 17.18628,-8.41919c6.30863,-4.40676 11.24876,-9.90353 14.82056,-16.49047c3.57179,-6.58695 5.35766,-13.26657 5.35766,-20.03907c0,-6.21585 -1.43797,-15.21478 -4.31396,-26.99707c-2.1338,-8.81352 -3.20068,-16.42086 -3.20068,-22.82226c0,-17.25595 9.0917,-27.46092 27.27539,-30.61524l0,-8.76709c-9.74126,-1.48438 -16.72239,-5.38083 -20.94361,-11.68945c-4.22121,-6.30863 -6.33178,-13.03463 -6.33178,-20.17822c0,-6.30863 1.02049,-13.59127 3.06152,-21.84815c2.87599,-11.68951 4.31396,-20.41013 4.31396,-26.16211c0,-11.22564 -4.89375,-21.8249 -14.68139,-31.79809c-9.78765,-9.9732 -24.00504,-15.09888 -42.65259,-15.3772l0,0z"/>
  <filter y="-50%" x="-50%" width="200%" id="filter-4" height="200%" filterUnits="objectBoundingBox">
   <feGaussianBlur stdDeviation="2"/>
  </filter>
 </defs>
 <g>
  <title>background</title>
  <rect fill="none" id="canvas_background" height="402" width="582" y="-1" x="-1"/>
 </g>
 <g>
  <title>Layer 1</title>
  <circle r="200" id="Background" fill="#AAD8B0" cy="200" cx="200"/>
  <use id="svg_1" xlink:href="#path-1" filter="url(#filter-2)" fill="black"/>
  <use id="svg_2" xlink:href="#path-1" fill-rule="evenodd" fill="#939393"/>
  <use id="svg_3" xlink:href="#path-3" filter="url(#filter-4)" fill="black"/>
  <use id="svg_4" xlink:href="#path-3" fill-rule="evenodd" fill="#939393"/>
 </g>
</svg>