<svg width="64" height="64" xmlns="http://www.w3.org/2000/svg">

 <g>
  <title>background</title>
  <rect fill="none" id="canvas_background" height="402" width="582" y="-1" x="-1"/>
 </g>
 <g>
  <title>Layer 1</title>
  <circle id="svg_1" r="32" fill="#76C2AF" cy="32" cx="32"/>
  <path transform="rotate(49.228797912597656 31.369993209838878,33.09478378295898) " id="svg_2" opacity="0.2" fill="#231F20" d="m50.394998,24.823987l-19.469,17.775c0,0 -4.347,3.837 -10.367,3.023c-2.688,-0.364 -6.145,-1.257 -10.523,-3.08l1.873,-2.454l10.245,0c0,0 17.574,-14.635 19.838,-16.899c1.926,-1.926 6.75,-3.267 9.917,-2.529c1.063,0.248 1.486,1.164 -1.514,4.164z"/>
  <polygon stroke="null" transform="rotate(53.31795120239258 27.897495269775387,31.41297912597656) " id="svg_3" points="32.78763837367296,34.4079475402832 15.895216651260853,31.843299865722656 18.411087699234486,28.418010711669922 39.89977902919054,28.418010711669922 " opacity="0.2" fill="#231F20"/>
  <path transform="rotate(49.98331069946289 31.46099853515625,31.73180007934571) " id="svg_4" fill="#FFFFFF" d="m50.486,23.461002l-19.469,17.775c0,0 -4.347,3.837 -10.367,3.023c-2.688,-0.364 -6.145,-1.257 -10.523,-3.08l1.873,-2.454l10.245,0c0,0 17.574,-14.635 19.838,-16.899c1.926,-1.926 6.75,-3.267 9.917,-2.529c1.063,0.248 1.486,1.164 -1.514,4.164z"/>
  <polygon stroke="null" transform="rotate(52.741065979003906 28.16437530517577,29.991220474243164) " id="svg_5" points="32.72269757565004,32.773769377563106 16.15502484615785,30.54757272633868 18.29530461605531,27.208671370569512 40.173724492153944,27.208671370569512 " fill="#FFFFFF"/>
 </g>
</svg>