<svg width="512" height="512" xmlns="http://www.w3.org/2000/svg">

 <g>
  <title>background</title>
  <rect fill="none" id="canvas_background" height="402" width="582" y="-1" x="-1"/>
 </g>
 <g>
  <title>Layer 1</title>
  <ellipse stroke="null" ry="255.068027" rx="254.469152" id="svg_2" cy="255.825304" cx="256.364053" stroke-opacity="null" stroke-width="null" fill="#c75c5b"/>
  <polygon fill="#ffffff" points="379.765143096447,148.5191192626953 310.06516140699387,148.5191192626953 310.06516140699387,78.81903839111328 320.265143096447,78.81903839111328 320.265143096447,138.4191131591797 379.765143096447,138.4191131591797 " id="XMLID_897_" class="st3"/>
  <polygon fill="#ffffff" points="384.8651491999626,423.7191162109375 112.76524990797043,423.7191162109375 112.76524990797043,73.71903991699219 320.06516140699387,73.71903991699219 384.8651491999626,141.4191131591797 384.8651491999626,248.7191162109375 374.6651675105095,248.7191162109375 374.6651675105095,145.5191192626953 315.765143096447,83.91903686523438 122.96524685621262,83.91903686523438 122.96524685621262,413.51910400390625 374.6651675105095,413.51910400390625 374.6651675105095,389.51910400390625 384.8651491999626,389.51910400390625 " id="XMLID_895_" class="st3"/>
  <rect fill="#ffffff" y="147.519052" x="155.365232" width="138" id="XMLID_892_" height="10.2" class="st3"/>
  <rect fill="#ffffff" y="177.519052" x="155.365232" width="90.9" id="XMLID_890_" height="10.2" class="st3"/>
  <rect fill="#ffffff" y="207.419052" x="155.365232" width="186.9" id="XMLID_888_" height="10.2" class="st3"/>
  <rect fill="#ffffff" y="237.419052" x="155.365232" width="186.9" id="XMLID_886_" height="10.2" class="st3"/>
  <path transform="rotate(-180 379.81524658203125,319.90667724609375) " fill="#ffffff" id="XMLID_879_" d="m379.765232,399.106673l-54.8,-79.3l23.4,0l0,-79.1l62.9,0l0,79.1l23.4,0l-54.9,79.3zm-35.4,-69.1l35.5,51.3l35.5,-51.3l-14.2,0l0,-79.1l-42.5,0l0,79.1l-14.3,0z" class="st3"/>
  <path fill="#ffffff" id="XMLID_3110_" d="m283.665232,299.319052l-187.4,0l0,80.5l187.4,0l-39.9,-40.2l39.9,-40.3zm-110,57.7l-24.6,0l0,-3.7l17.1,-26.7l-16.9,0l0,-4.7l23.9,0l0,3.5l-17.1,26.8l17.8,0l0,4.8l-0.2,0zm13.5,0l-5.8,0l0,-35l5.8,0l0,35zm31.8,-16.2c-2.2,2 -5.2,3 -9.1,3l-7.6,0l0,13.3l-5.8,0l0,-35l13.4,0c3.9,0 6.9,1 9.1,3c2.2,2 3.3,4.6 3.3,7.9c0,3.2 -1.1,5.8 -3.3,7.8z" class="st3"/>
  <path fill="#ffffff" id="XMLID_3113_" d="m209.865232,326.719052l-7.6,0l0,12.4l7.6,0c2.2,0 3.8,-0.6 4.9,-1.7c1.1,-1.2 1.6,-2.6 1.6,-4.4s-0.5,-3.3 -1.6,-4.4c-1.1,-1.3 -2.7,-1.9 -4.9,-1.9z" class="st3"/>
 </g>
</svg>